# xmcd
#
# Track frame offsets: 
#        150
#        6274
#        24716
#        41258
#        60870
#        79602
#        96595
#        112210
#        118916
#        134248
#        157398
#        176503
#        188670
#        203146
#        212522
#        232259
#        254111
#
# Disc length: 3660 seconds
#
# Revision: 1
# Processed by: cddbd v1.5.2PL0 Copyright (c) Steve Scherf et al.
# Submitted via: ExactAudioCopy v1.0b3
#
DISCID=000e4a11
DTITLE=Fuego - Ne-am nascut intr-o colinda
DYEAR=2011
DGENRE=Contemporary Christian
TTITLE0=Colind tara dintre munti
TTITLE1=Veniti in casa de romani
TTITLE2=Mare trandafir
TTITLE3=Maria, Maria
TTITLE4=Ceruri sfinte
TTITLE5=Ce faci mama, ce faci tata?
TTITLE6=Mama, asteapta-ma ca vin
TTITLE7=Multumesc, Mos Craciun
TTITLE8=Vals de Craciun
TTITLE9=Nu-i lumina nicaieri
TTITLE10=Rug, rugutule
TTITLE11=Un dar de Craciun
TTITLE12=Ti-naltam colind
TTITLE13=Craciun vesel
TTITLE14=E noaptea ta, Iisuse
TTITLE15=Sa m-asteptati
TTITLE16=Astazi s-a nascut Hristos
EXTD=
EXTT0=
EXTT1=
EXTT2=
EXTT3=
EXTT4=
EXTT5=
EXTT6=
EXTT7=
EXTT8=
EXTT9=
EXTT10=
EXTT11=
EXTT12=
EXTT13=
EXTT14=
EXTT15=
EXTT16=
PLAYORDER=
